<svg width="437" height="161" viewBox="0 0 437 161" fill="none" xmlns="http://www.w3.org/2000/svg">
<g clip-path="url(#clip0_134_34)">
<path d="M118.408 119.67C117.872 121.397 117.709 122.911 116.98 124.083C114.629 127.854 112.104 131.506 109.579 135.165C109.161 135.763 108.463 136.2 107.827 136.611C102.171 140.313 90.5049 140.164 84.9555 136.318C80.9649 133.551 79.4061 129.537 79.2939 124.875C79.2128 121.49 79.2752 118.1 79.0382 114.572C77.6041 116.884 75.7273 118.872 74.4428 121.222C69.2488 130.765 60.8312 135.888 50.7176 138.687C49.059 139.142 48.2297 139.528 47.9179 141.604C47.2881 145.867 46.1097 150.118 41.9507 152.604C41.3023 152.991 41.2711 153.782 41.003 154.406C39.9679 156.793 38.7209 159.012 36.2953 160.277C33.4583 161.754 30.2471 160.919 28.2518 158.177C26.6119 155.92 25.9323 153.296 25.8699 150.573C25.8014 147.394 25.8824 144.203 26.0695 141.024C26.1443 139.777 25.7951 139.347 24.6167 139.092C20.1272 138.113 15.8187 136.574 11.8468 134.23C5.41197 130.434 1.13456 125.062 0.168094 117.495C-0.530258 112.041 0.885152 107.067 4.21479 102.667C4.63256 102.119 5.17503 101.614 5.4182 100.99C7.66291 95.3186 11.3854 91.2486 17.5957 89.84C17.1655 88.8303 16.3237 88.5747 15.6815 88.126C3.80327 79.7428 -0.124965 68.1248 4.28338 54.2942C5.26856 51.1965 5.54915 47.9243 6.76503 44.8764C11.2607 33.5701 20.0898 27.3871 31.3508 24.1149C35.4848 22.9119 35.4536 22.9805 35.5159 18.6799C35.5783 14.3418 36.1208 10.0848 38.0038 6.0958C38.6273 4.77444 39.4317 3.57774 40.4855 2.54932C44.607 -1.45215 50.2561 -0.673044 52.9498 4.36931C54.3527 6.98709 55.0261 9.86042 55.1321 12.8335C55.2381 15.7317 55.3192 18.6425 55.2194 21.5407C55.1758 22.8746 55.631 23.3482 56.8468 23.6038C61.8226 24.6509 66.6051 26.2901 70.9199 29.0263C77.9346 33.4766 82.2681 39.6782 82.0249 48.1985C81.8628 53.833 80.173 59.2555 77.4794 64.2231C75.1661 68.4863 71.4624 71.2101 66.1499 72.4691C72.3665 76.1402 77.2238 80.578 80.0109 87.0851C80.2479 82.9402 80.4287 78.7954 80.7405 74.6568C81.4263 65.5569 81.4638 56.3947 83.2283 47.3882C83.7085 44.945 84.2135 42.5079 84.6438 40.0522C86.1714 31.2764 91.1284 25.4238 99.7643 23.1675C112.067 19.9576 124.437 19.4403 136.54 24.0463C149.092 28.8269 156.929 37.9517 160.309 50.916C160.465 51.5206 160.608 52.1252 160.758 52.7298C160.777 52.7921 160.82 52.8544 160.901 52.9978C161.693 52.6113 161.668 51.7824 161.905 51.1404C164.281 44.652 167.43 38.6062 171.956 33.3395C186.26 16.7041 210.846 16.6791 225.187 33.2771C227.176 35.5833 228.86 38.1138 230.518 40.7004C231.373 40.3701 231.609 39.5972 232.033 39.0238C246.088 19.8142 271.129 18.3308 287.309 35.7703C287.964 36.4808 288.357 37.1041 289.329 35.9759C296.725 27.3996 306.483 23.6038 317.451 22.513C323.904 21.8711 330.333 22.3759 336.605 24.1398C343.707 26.1343 350.317 29.0076 355.137 35.1283C355.43 34.6982 355.648 34.4364 355.791 34.1435C358.323 29.0637 362.569 26.2465 367.95 24.9314C373.556 23.5602 379.273 22.9493 385.022 22.6626C397.281 22.0518 409.546 21.815 421.692 24.0775C435.51 26.6516 441.165 39.8216 433.633 51.7512C433.084 52.6238 432.648 53.5774 432.211 54.5124C429.929 59.4363 426.331 62.6524 420.769 63.338C419.186 63.5312 417.608 63.9052 416.03 63.899C414.079 63.8865 413.499 64.5721 413.474 66.5604C413.293 80.8211 413.455 95.0756 413.879 109.33C413.979 112.652 414.035 115.974 413.555 119.278C413.137 122.188 412.339 124.962 410.587 127.38C410.051 128.122 409.702 128.932 409.452 129.805C407.725 135.832 403.672 139.266 397.555 140.251C393.409 140.924 389.256 140.768 385.197 139.597C379.841 138.051 376.399 134.567 374.797 129.238C373.562 125.136 373.481 120.911 373.4 116.691C373.101 101.252 373.643 85.826 373.805 70.3936C373.855 65.3949 373.581 65.0271 368.555 64.5347C364.19 64.1109 359.819 63.8304 356.365 60.5831C355.311 59.5921 355.137 60.7763 354.869 61.3872C353.073 65.4634 350.367 68.6796 346.251 70.5556C345.204 71.0356 344.075 71.3472 342.691 71.8396C343.539 72.4068 344.169 72.8929 344.848 73.2856C361.565 82.8904 362.214 104.263 355.442 115.75C354.388 117.532 353.453 119.39 352.543 121.253C349.35 127.736 344.312 132.41 337.896 135.446C322.246 142.856 306.551 142.476 290.963 135.128C289.142 134.268 287.446 133.158 285.962 131.793C285.021 130.927 284.385 130.783 283.425 131.83C272.394 143.885 250.022 144.938 236.835 137.571C232.127 134.941 228.542 131.132 225.592 126.701C224.744 125.423 224.271 125.018 223.129 126.476C210.16 143.025 184.346 141.716 172.543 133.769C169.225 131.538 166.463 128.733 164.131 125.523C163.321 124.407 163.009 124.457 162.111 125.548C160.365 127.673 158.8 129.811 157.64 132.367C156.331 135.246 153.643 136.91 150.663 137.92C145.762 139.584 140.743 139.858 135.698 138.755C130.579 137.633 126.95 134.411 124.288 130.06C122.66 127.405 121.226 124.638 119.699 121.92C119.331 121.272 118.957 120.63 118.402 119.664L118.408 119.67ZM87.194 94.097C87.2065 101.844 87.3935 109.592 87.8113 117.327C88.1293 123.173 91.0287 126.47 96.7901 127.592C100.294 128.272 103.823 128.166 107.315 127.455C111.175 126.67 113.569 124.407 114.261 120.449C114.704 117.919 114.847 115.37 114.978 112.814C115.091 110.471 115.091 108.096 115.745 105.821C116.681 102.574 119.243 101.894 121.706 104.244C123.016 105.491 124.007 107.005 124.942 108.545C127.2 112.272 129.525 115.962 131.658 119.758C137.295 129.786 148.873 129.219 155.926 126.177C159.112 124.8 160.515 122.101 160.247 118.611C160.041 115.937 159.043 113.512 157.796 111.181C155.676 107.211 153.138 103.49 150.707 99.7128C148.986 97.0389 147.221 94.3899 145.943 91.4605C144.908 89.092 145.107 86.8482 146.716 84.8288C147.882 83.3703 149.148 81.9929 150.401 80.6092C153.431 77.2746 155.676 73.51 156.842 69.1408C160.845 54.1758 153.687 37.0044 140.019 29.7182C126.676 22.6065 112.684 23.2236 98.6856 27.4681C93.2422 29.1136 90.0747 33.2709 88.7403 38.7869C87.9734 41.9657 87.5806 45.1943 87.5681 48.4478C87.5245 59.6482 87.194 90.0831 87.2002 94.0908L87.194 94.097ZM33.9384 134.23C33.6952 137.758 34.4061 141.523 35.2229 145.256C35.6905 147.369 36.7069 149.563 39.07 149.831C41.3709 150.093 42.3311 147.911 43.3474 146.197C43.4846 145.96 43.6343 145.711 43.6966 145.449C44.4947 142.302 45.773 139.229 45.4674 135.894C45.2866 133.875 45.9912 131.943 45.8914 129.948C45.8478 129.057 46.4526 129.194 46.9951 129.169C52.1828 128.926 57.0963 127.567 61.779 125.404C70.8076 121.241 76.6688 114.534 78.1466 104.475C79.456 95.5617 77.3485 83.2768 65.9379 76.5828C62.8951 74.8002 59.7899 73.1236 56.6847 71.4532C52.7191 69.3278 48.716 67.2772 45.1245 64.5285C43.7964 63.5125 42.5244 62.4467 41.7886 60.901C40.2672 57.6911 42.0318 54.7741 45.5672 54.6432C47.5874 54.5684 49.3396 55.3413 51.0231 56.376C54.5585 58.5575 58.1188 60.6953 62.2217 61.6988C69.0057 63.3567 74.7109 60.4398 77.311 53.9763C80.4723 46.1105 77.3111 37.3659 69.3735 32.3048C64.5162 29.2071 59.1227 27.4806 53.4548 26.6516C51.7776 26.4086 51.2476 25.8601 51.2663 24.09C51.3037 19.9888 52.0706 15.9125 51.391 11.7801C51.0418 9.6672 50.6552 7.61661 49.5578 5.79662C48.0987 3.38452 45.5485 3.05418 43.4347 4.9178C41.2711 6.82504 40.261 9.35556 39.7809 12.1105C39.0202 16.4547 38.7583 20.8738 37.7793 25.1932C37.5175 26.3649 37.0872 26.5395 36.1083 26.7202C29.3991 27.9792 23.301 30.5659 18.001 34.9849C6.3535 44.6894 3.51644 65.8685 19.273 77.1001C21.7547 78.8702 24.3361 80.4783 26.9798 81.9866C31.9057 84.8039 36.9688 87.3843 41.4706 90.8871C42.6803 91.822 43.8712 92.7756 44.6132 94.1531C45.455 95.7113 45.6794 97.3194 44.7566 98.9025C43.7964 100.554 42.1565 100.866 40.4293 100.785C38.6585 100.704 37.0935 99.9995 35.5908 99.077C32.0553 96.9018 28.5075 94.7514 24.4047 93.7355C17.39 92.0028 11.4851 95.1379 9.03467 101.932C6.22879 109.716 9.41502 118.1 17.1094 123.067C20.8755 125.498 25.0282 126.994 29.3679 128.022C30.9018 128.384 33.0405 128.296 33.7825 129.275C34.5495 130.279 33.9509 132.323 33.9509 134.243L33.9384 134.23ZM321.959 25.8601C312.506 26.0658 303.209 28.3906 295.34 34.9974C283.456 44.9824 281.704 65.0084 294.804 75.679C297.716 78.0475 300.877 80.0295 304.126 81.8869C309.108 84.7415 314.239 87.3531 318.797 90.8871C320.007 91.822 321.198 92.7756 321.94 94.1531C322.782 95.7113 323.006 97.3194 322.083 98.9025C321.117 100.554 319.483 100.866 317.756 100.785C315.985 100.698 314.42 99.9995 312.918 99.077C309.557 97.0202 306.202 94.9322 302.33 93.9038C293.551 91.5602 286.255 96.6711 285.501 105.771C284.803 114.254 288.849 120.337 296.07 123.965C310.879 131.4 326.074 131.806 341.032 124.407C350.766 119.595 355.667 111.293 355.798 100.467C355.922 89.9522 351.926 81.4818 342.485 76.0966C339.243 74.2455 335.944 72.4878 332.652 70.7239C328.805 68.6733 324.952 66.6165 321.578 63.818C318.723 61.4557 317.837 58.5824 319.24 56.4321C320.568 54.3939 323.829 54.0137 327.003 55.6405C328.724 56.5256 330.339 57.6101 332.029 58.5575C335.184 60.3338 338.457 61.7798 342.136 62.1039C350.535 62.8394 357.12 54.9549 354.875 46.8771C354.507 45.5496 354.039 44.1472 354.133 42.8196C354.326 40.127 353.042 38.1948 351.433 36.3437C349.032 33.5701 346.033 31.6067 342.704 30.1358C336.281 27.2874 329.535 25.9723 321.959 25.8663V25.8601ZM260.934 130.883C270.873 130.908 279.054 127.885 284.896 122.195C286.019 121.098 286.249 120.412 285.295 118.997C282.19 114.391 281.099 109.299 282.115 103.77C283.443 96.534 288.818 90.8435 295.421 89.8026C297.417 89.4868 298.468 88.3171 298.576 86.2935C298.595 85.9507 298.545 85.5892 298.626 85.2589C299.063 83.5199 298.315 82.5351 296.843 81.594C291.568 78.2158 287.091 74.0211 284.597 68.1311C280.806 59.1745 281.336 50.3239 285.582 41.654C286 40.8064 286.343 40.1956 285.57 39.2856C277.751 30.0548 267.924 25.8912 255.877 27.7611C246.25 29.257 238.886 34.5923 233.985 42.7947C221.427 63.8055 219.837 86.0317 228.479 108.732C234.247 123.89 245.171 130.839 260.94 130.883H260.934ZM198.631 128.122C199.878 128.06 201.125 128.041 202.366 127.935C211.114 127.175 218.721 124.133 224.57 117.246C226.26 115.251 227.195 113.55 225.468 111.156C224.875 110.34 224.601 109.28 224.264 108.302C217.05 87.2035 218.222 66.5542 227.65 46.3785C228.249 45.1008 228.311 44.1659 227.575 42.9879C226.253 40.8749 224.963 38.7433 223.373 36.8174C215.51 27.2936 205.502 23.0241 193.213 25.0436C182.856 26.7451 175.336 32.872 170.435 41.8286C158.975 62.7895 157.578 84.6667 166.407 106.831C172.087 121.091 183.08 128.29 198.637 128.128L198.631 128.122ZM380.72 87.7458H380.502C380.502 91.3421 380.402 94.9447 380.527 98.5348C380.739 104.824 380.352 111.131 381.194 117.389C382.123 124.332 385.297 127.891 391.644 129.051C394.656 129.599 397.705 129.668 400.742 129.144C405.381 128.346 408.336 125.747 409.477 121.129C410.269 117.938 410.319 114.69 410.263 111.437C410.101 102.518 409.864 93.5984 409.77 84.673C409.689 76.9941 409.608 69.3153 410.051 61.6427C410.3 57.3857 412.14 55.4099 416.386 54.7991C417.758 54.5996 419.142 54.5186 420.514 54.3254C423.176 53.9576 425.963 53.9514 428.189 52.1439C432.554 48.5974 433.776 43.8355 432.972 38.5376C432.23 33.6386 429.424 30.2293 424.635 28.5963C422.334 27.8109 419.952 27.3871 417.552 27.063C406.316 25.5547 395.036 25.5921 383.757 26.3899C378.033 26.795 372.271 27.2251 366.79 29.1198C357.681 32.2674 354.75 43.8916 361.179 51.1155C362.806 52.9417 364.783 54.1072 367.227 54.4251C369.765 54.7554 372.327 54.9549 374.84 55.4099C378.955 56.1578 380.701 58.2707 380.72 62.4156C380.751 70.8548 380.733 79.294 380.733 87.7333L380.72 87.7458ZM154.217 97.9676C153.824 93.6046 153.961 89.279 154.055 84.567C152.534 86.4182 151.324 87.9078 150.089 89.3725C149.647 89.8961 149.441 90.3822 149.778 91.0491C151.018 93.4862 152.471 95.7799 154.217 97.9613V97.9676Z" fill="#343230"/>
<path d="M87.5616 48.4537C87.5741 45.2002 87.9669 41.9716 88.7338 38.7929C90.0682 33.2706 93.2357 29.1195 98.6791 27.4741C112.677 23.2357 126.676 22.6125 140.013 29.7241C153.687 37.0103 160.845 54.1817 156.836 69.1467C155.67 73.5159 153.425 77.2805 150.395 80.6151C149.141 81.9988 147.869 83.3762 146.71 84.8347C145.095 86.8542 144.895 89.098 145.936 91.4664C147.221 94.3959 148.979 97.0448 150.7 99.7187C153.132 103.496 155.663 107.217 157.79 111.187C159.037 113.518 160.028 115.943 160.24 118.617C160.514 122.107 159.112 124.806 155.919 126.183C148.873 129.225 137.294 129.792 131.651 119.763C129.519 115.968 127.193 112.278 124.936 108.551C124.001 107.011 123.009 105.497 121.7 104.25C119.243 101.9 116.674 102.58 115.739 105.827C115.084 108.102 115.09 110.477 114.972 112.82C114.847 115.376 114.704 117.925 114.255 120.455C113.563 124.413 111.168 126.676 107.309 127.461C103.817 128.172 100.288 128.277 96.7836 127.598C91.0222 126.476 88.1166 123.179 87.8048 117.333C87.387 109.598 87.1937 101.85 87.1875 94.1029C87.1875 90.089 87.1875 86.0813 87.1875 82.0673C87.306 82.0673 87.5117 59.6604 87.5554 48.46L87.5616 48.4537ZM115.309 60.2774C115.415 62.0538 115.383 63.9361 115.677 65.7685C116.076 68.2492 117.79 69.4085 120.291 69.209C122.292 69.047 123.807 68.0435 124.973 66.4666C127.53 63.0074 127.393 56.7372 124.705 53.3901C123.907 52.3929 122.922 51.6512 121.719 51.2273C118.557 50.1054 116.169 51.4767 115.677 54.8112C115.415 56.5813 115.427 58.3889 115.309 60.2774Z" fill="#3A80FE"/>
<path d="M33.9333 134.23C33.9333 132.311 34.5318 130.266 33.7649 129.263C33.0229 128.29 30.878 128.378 29.3503 128.01C25.0106 126.982 20.8579 125.486 17.0918 123.055C9.39741 118.093 6.21118 109.704 9.01706 101.919C11.4675 95.1256 17.3723 91.9904 24.387 93.7232C28.4899 94.7329 32.0377 96.8894 35.5731 99.0647C37.0758 99.9872 38.6409 100.685 40.4117 100.772C42.1389 100.854 43.7788 100.542 44.739 98.8902C45.6618 97.307 45.4374 95.699 44.5956 94.1408C43.8536 92.7633 42.6564 91.8159 41.453 90.8748C36.9511 87.3782 31.8881 84.7915 26.9622 81.9743C24.3185 80.4597 21.737 78.8579 19.2554 77.0878C3.50507 65.85 6.33589 44.6771 17.9834 34.9726C23.2772 30.5598 29.3753 27.9669 36.0907 26.7079C37.0696 26.5271 37.4936 26.3526 37.7617 25.1808C38.7407 20.8553 39.0025 16.4424 39.7633 12.0981C40.2434 9.34324 41.2535 6.81271 43.4171 4.90547C45.5309 3.04186 48.0874 3.3722 49.5402 5.7843C50.6376 7.60428 51.0242 9.65488 51.3734 11.7678C52.0592 15.9002 51.2861 19.9764 51.2487 24.0776C51.2362 25.8477 51.7599 26.3962 53.4372 26.6393C59.1051 27.4683 64.4986 29.1948 69.3559 32.2925C77.2934 37.3535 80.4547 46.1044 77.2934 53.964C74.6933 60.4274 68.988 63.3506 62.204 61.6865C58.1012 60.683 54.5471 58.5389 51.0055 56.3636C49.3282 55.329 47.5761 54.5561 45.5496 54.6309C42.0142 54.7618 40.2496 57.6725 41.771 60.8887C42.5068 62.4406 43.7788 63.5002 45.1069 64.5162C48.6984 67.2648 52.7015 69.3092 56.6671 71.4408C59.7723 73.1112 62.8775 74.7879 65.9203 76.5704C77.3371 83.2645 79.4384 95.5556 78.129 104.462C76.6512 114.528 70.7838 121.229 61.7613 125.392C57.0786 127.555 52.1652 128.914 46.9775 129.157C46.4412 129.182 45.8302 129.045 45.8738 129.936C45.9736 131.93 45.269 133.863 45.4498 135.882C45.7491 139.217 44.4771 142.289 43.679 145.437C43.6104 145.699 43.467 145.948 43.3298 146.185C42.3135 147.899 41.347 150.08 39.0524 149.819C36.6893 149.551 35.6729 147.357 35.2053 145.244C34.3822 141.516 33.6776 137.752 33.9208 134.218L33.9333 134.23Z" fill="#3A80FE"/>
<path d="M321.959 25.8597C329.534 25.9657 336.287 27.2746 342.703 30.1292C346.033 31.6064 349.032 33.5635 351.433 36.3371C353.042 38.1945 354.32 40.1204 354.133 42.813C354.039 44.1406 354.507 45.543 354.875 46.8706C357.119 54.9483 350.535 62.8328 342.136 62.0974C338.463 61.7733 335.19 60.3273 332.029 58.5509C330.339 57.6035 328.724 56.519 327.003 55.6339C323.829 54.0072 320.568 54.3874 319.24 56.4255C317.843 58.5758 318.729 61.4492 321.578 63.8114C324.958 66.6099 328.805 68.6668 332.652 70.7174C335.951 72.475 339.243 74.2389 342.485 76.0901C351.925 81.4752 355.922 89.9456 355.797 100.46C355.667 111.287 350.766 119.589 341.032 124.401C326.068 131.799 310.878 131.394 296.07 123.958C288.843 120.331 284.796 114.254 285.501 105.765C286.255 96.6708 293.551 91.5599 302.33 93.8972C306.202 94.9319 309.557 97.0136 312.917 99.0705C314.42 99.9929 315.991 100.691 317.756 100.778C319.483 100.859 321.123 100.548 322.083 98.896C323.006 97.3128 322.782 95.7047 321.94 94.1465C321.198 92.7691 320.001 91.8217 318.797 90.8805C314.233 87.3403 309.108 84.7287 304.126 81.8803C300.877 80.023 297.716 78.0409 294.804 75.6725C281.704 65.0019 283.456 44.9696 295.34 34.9908C303.203 28.384 312.506 26.053 321.959 25.8535V25.8597Z" fill="#3A80FE"/>
<path d="M260.927 130.883C245.158 130.846 234.234 123.896 228.466 108.732C219.831 86.0317 221.414 63.8054 233.972 42.7946C238.873 34.5984 246.237 29.2569 255.864 27.761C267.911 25.8912 277.744 30.0547 285.557 39.2855C286.33 40.2018 285.981 40.8063 285.569 41.654C281.323 50.3301 280.793 59.1807 284.584 68.131C287.078 74.021 291.555 78.222 296.83 81.5939C298.302 82.5351 299.05 83.5199 298.613 85.2588C298.532 85.5892 298.576 85.9507 298.563 86.2935C298.46 88.3171 297.408 89.4867 295.408 89.8025C288.805 90.8434 283.43 96.534 282.102 103.77C281.092 109.293 282.177 114.391 285.282 118.997C286.236 120.406 286.006 121.098 284.883 122.195C279.041 127.885 270.86 130.908 260.921 130.883H260.927ZM270.131 78.7829C270.131 77.4678 270.212 76.1527 270.118 74.85C269.763 70.0632 269.139 65.3263 266.152 61.331C263.209 57.3981 258.938 57.4293 255.883 61.2812C254.835 62.5963 254.056 64.0735 253.601 65.6691C250.832 75.305 251.032 84.9222 254.33 94.3774C255.422 97.4938 257.224 100.523 261.089 100.486C264.837 100.448 266.439 97.4502 267.68 94.4398C269.738 89.4348 270.162 84.1369 270.131 78.7892V78.7829Z" fill="#3A80FE"/>
<path d="M198.625 128.122C183.068 128.284 172.075 121.091 166.395 106.824C157.565 84.6603 158.962 62.7831 170.423 41.8221C175.324 32.8655 182.843 26.7387 193.2 25.0371C205.49 23.0177 215.504 27.2872 223.36 36.8109C224.95 38.7368 226.241 40.8685 227.563 42.9814C228.299 44.1532 228.236 45.0943 227.638 46.3721C218.21 66.5477 217.031 87.2033 224.252 108.295C224.589 109.274 224.863 110.333 225.455 111.15C227.182 113.543 226.247 115.245 224.557 117.239C218.715 124.127 211.108 127.174 202.353 127.929C201.113 128.034 199.866 128.059 198.619 128.116L198.625 128.122ZM207.803 74.9371C207.859 73.2106 207.703 70.518 207.248 67.8504C206.643 64.3475 205.764 60.9319 203.407 58.1209C200.657 54.8362 196.767 54.7988 193.911 57.9838C192.502 59.5607 191.604 61.4305 191.018 63.4375C188.711 71.3345 188.954 79.2938 190.563 87.2594C191.186 90.3321 192.178 93.2927 194.354 95.6737C196.972 98.5283 200.464 98.4473 203.008 95.5241C204.162 94.2027 204.96 92.6694 205.546 91.0302C207.292 86.1437 207.778 81.0639 207.803 74.9371Z" fill="#3A80FE"/>
<path d="M380.714 87.7458C380.714 79.3066 380.739 70.8673 380.702 62.4281C380.683 58.2833 378.937 56.1703 374.822 55.4224C372.309 54.9674 369.746 54.7679 367.209 54.4376C364.764 54.1197 362.782 52.9542 361.16 51.128C354.732 43.9041 357.662 32.2862 366.772 29.1323C372.253 27.2376 378.014 26.8075 383.738 26.4024C395.018 25.6046 406.298 25.5609 417.534 27.0755C419.934 27.3996 422.316 27.8235 424.617 28.6088C429.406 30.2356 432.211 33.6511 432.953 38.5501C433.758 43.848 432.536 48.6099 428.171 52.1564C425.945 53.9701 423.152 53.9701 420.495 54.3379C419.124 54.5311 417.739 54.6121 416.368 54.8116C412.121 55.4224 410.282 57.392 410.033 61.6552C409.584 69.3278 409.671 77.0066 409.752 84.6855C409.846 93.6046 410.089 102.524 410.245 111.449C410.301 114.703 410.245 117.944 409.459 121.141C408.318 125.76 405.362 128.359 400.723 129.157C397.687 129.68 394.638 129.612 391.626 129.063C385.278 127.904 382.111 124.345 381.176 117.402C380.334 111.138 380.72 104.83 380.508 98.5473C380.39 94.9572 380.484 91.3546 380.484 87.7583H380.702L380.714 87.7458Z" fill="#3A80FE"/>
<path d="M115.309 60.2778C115.427 58.3893 115.421 56.5818 115.676 54.8117C116.163 51.4771 118.557 50.0997 121.718 51.2278C122.922 51.6579 123.901 52.3933 124.705 53.3906C127.393 56.7376 127.53 63.0078 124.973 66.467C123.807 68.0439 122.298 69.0474 120.291 69.2095C117.79 69.4089 116.076 68.2496 115.676 65.769C115.383 63.9365 115.415 62.0542 115.309 60.2778ZM118.987 61.9732C119.224 63.4566 118.595 64.6845 119.767 65.5383C119.885 65.6256 120.415 65.4262 120.446 65.2953C120.727 64.0612 120.309 63.0515 118.987 61.9732Z" fill="#343230"/>
<path d="M270.131 78.7828C270.156 84.1306 269.739 89.4223 267.681 94.4335C266.44 97.4439 264.838 100.442 261.09 100.479C257.224 100.517 255.422 97.4875 254.331 94.3711C251.026 84.9159 250.833 75.2987 253.602 65.6628C254.057 64.0734 254.842 62.5962 255.884 61.2748C258.939 57.423 263.21 57.398 266.153 61.3247C269.14 65.3137 269.763 70.0569 270.119 74.8437C270.219 76.1464 270.131 77.4677 270.131 78.7766V78.7828ZM255.497 78.6769C255.447 81.3757 255.616 84.062 256.052 86.7235C256.582 89.9334 257.224 93.1246 259.294 95.7797C259.718 96.322 260.217 96.8767 261.003 96.7832C261.813 96.6835 261.838 95.9231 261.951 95.3497C263.241 88.799 263.753 82.2171 262.468 75.6103C262.057 73.5036 261.458 71.4343 260.099 69.7016C259.5 68.935 258.814 68.187 257.679 68.4426C256.538 68.7044 256.252 69.658 256.077 70.6303C255.616 73.2917 255.435 75.9718 255.497 78.6707V78.6769Z" fill="#343230"/>
<path d="M207.803 74.9373C207.778 81.0641 207.298 86.1439 205.546 91.0304C204.959 92.6696 204.161 94.2029 203.008 95.5243C200.464 98.4475 196.972 98.5285 194.353 95.6739C192.171 93.2991 191.18 90.3323 190.562 87.2595C188.954 79.294 188.71 71.3347 191.017 63.4377C191.604 61.4307 192.501 59.5609 193.911 57.984C196.76 54.799 200.651 54.8364 203.407 58.1211C205.758 60.9259 206.643 64.3415 207.248 67.8505C207.709 70.5182 207.859 73.2108 207.803 74.9373ZM193.075 75.7662C193.056 79.294 193.293 82.8093 194.066 86.2561C194.609 88.6869 195.289 91.0865 196.922 93.0623C197.365 93.5983 197.889 94.1593 198.649 94.0284C199.497 93.885 199.535 93.0561 199.678 92.4016C200.832 87.1723 201.218 81.8806 200.801 76.5516C200.545 73.3105 200.027 70.0881 198.113 67.3083C197.521 66.4482 196.766 65.6254 195.557 65.9184C194.341 66.2113 193.811 67.14 193.599 68.3305C193.162 70.7924 193.088 73.2669 193.075 75.7538V75.7662Z" fill="#343230"/>
</g>
<defs>
<clipPath id="clip0_134_34">
<rect width="437" height="161" fill="white"/>
</clipPath>
</defs>
</svg>
